<?xml version="1.0" standalone="no"?>
<!DOCTYPE svg PUBLIC "-//W3C//DTD SVG 20010904//EN"
 "http://www.w3.org/TR/2001/REC-SVG-20010904/DTD/svg10.dtd">
<svg version="1.0" xmlns="http://www.w3.org/2000/svg"
 width="183.000000pt" height="183.000000pt" viewBox="0 0 183.000000 183.000000"
 preserveAspectRatio="xMidYMid meet">
<metadata>
Created by potrace 1.14, written by Peter Selinger 2001-2017
</metadata>
<g transform="translate(0.000000,183.000000) scale(0.100000,-0.100000)"
fill="#000000" stroke="none">
<path d="M676 1108 c-15 -40 -33 -87 -41 -105 -8 -18 -10 -35 -5 -38 5 -3 19
22 31 55 12 33 23 60 24 60 1 0 12 -26 24 -58 20 -56 23 -59 53 -58 27 1 32 5
30 21 -6 32 -73 195 -81 195 -4 0 -20 -33 -35 -72z"/>
<path d="M933 1098 c1 -43 5 -78 9 -78 4 0 8 3 9 8 6 58 26 109 47 117 10 4
36 9 60 11 35 4 42 2 43 -13 0 -10 1 -54 2 -98 l2 -80 35 0 35 0 1 90 c1 50 2
94 3 99 2 14 92 -2 112 -20 16 -14 32 -61 34 -98 0 -5 5 -11 10 -13 6 -2 10
28 11 75 l1 78 -207 -1 -208 0 1 -77z"/>
<path d="M855 940 c-3 -5 -1 -10 4 -10 6 0 11 5 11 10 0 6 -2 10 -4 10 -3 0
-8 -4 -11 -10z"/>
<path d="M905 942 c-6 -4 -8 -22 -4 -42 l6 -35 2 38 c1 26 5 36 13 31 7 -4 8
-3 4 4 -8 14 -8 14 -21 4z"/>
<path d="M1045 942 c-12 -8 -13 -58 -1 -69 4 -4 7 -3 6 2 -6 30 1 66 12 59 7
-4 8 -3 4 4 -8 14 -8 14 -21 4z"/>
<path d="M1243 943 c-18 -7 -16 -30 2 -37 20 -7 19 -24 -2 -29 -17 -4 -17 -5
0 -6 24 -1 34 29 14 44 -12 9 -14 14 -5 23 13 13 11 14 -9 5z"/>
<path d="M1299 948 c-5 -16 -3 -61 3 -64 4 -3 8 11 8 30 0 20 -2 36 -5 36 -3
0 -5 -1 -6 -2z"/>
<path d="M459 914 c-5 -15 -13 -32 -16 -38 -4 -6 1 -5 10 3 9 7 17 23 18 35 0
18 2 17 11 -6 5 -16 13 -28 18 -28 5 0 3 14 -3 30 -14 37 -24 38 -38 4z"/>
<path d="M520 905 c0 -19 4 -35 8 -35 4 0 6 16 4 35 -2 19 -6 35 -8 35 -2 0
-4 -16 -4 -35z"/>
<path d="M573 903 c0 -21 2 -31 4 -22 2 10 13 19 25 22 25 7 19 31 -9 35 -18
3 -21 -2 -20 -35z m37 17 c0 -5 -7 -10 -15 -10 -8 0 -15 5 -15 10 0 6 7 10 15
10 8 0 15 -4 15 -10z"/>
<path d="M631 905 c0 -35 1 -37 10 -17 6 15 5 30 -1 40 -7 13 -9 8 -9 -23z"/>
<path d="M673 905 c0 -22 2 -30 4 -17 2 12 2 30 0 40 -3 9 -5 -1 -4 -23z"/>
<path d="M707 923 c-2 -10 -8 -27 -13 -38 -7 -17 -6 -18 8 -5 9 8 14 17 13 20
-2 3 0 12 6 20 7 12 9 11 9 -6 0 -12 7 -27 16 -35 14 -12 14 -10 2 21 -16 39
-33 49 -41 23z"/>
<path d="M768 935 c-7 -7 3 -65 11 -65 4 0 6 14 3 30 -3 19 0 30 7 30 7 0 9
-4 6 -10 -3 -5 -1 -18 4 -27 9 -15 10 -13 11 15 0 24 -4 32 -18 32 -10 0 -21
-2 -24 -5z"/>
<path d="M830 907 c0 -32 3 -37 23 -36 16 1 18 2 5 6 -10 2 -18 11 -18 19 0
10 5 12 13 8 7 -5 7 -1 -3 12 -8 10 -16 21 -17 23 -2 2 -3 -12 -3 -32z"/>
<path d="M967 933 c-13 -12 -7 -51 9 -57 24 -9 31 -7 12 5 -21 12 -24 45 -5
52 6 3 7 6 1 6 -6 1 -14 -2 -17 -6z"/>
<path d="M1008 910 c5 -35 8 -37 15 -10 3 10 -1 24 -7 29 -10 8 -11 3 -8 -19z"/>
<path d="M1118 933 c6 -2 10 -9 6 -14 -9 -15 2 -10 16 6 10 13 9 15 -11 14
-13 0 -18 -3 -11 -6z"/>
<path d="M1170 914 c-13 -32 -12 -37 0 -29 6 3 10 16 10 27 0 25 10 19 14 -8
2 -10 8 -20 14 -22 8 -2 9 5 1 27 -13 38 -26 39 -39 5z"/>
<path d="M1340 905 c0 -30 3 -35 23 -34 16 1 18 2 5 6 -11 3 -18 14 -18 28 0
14 7 25 18 28 13 4 11 5 -5 6 -20 1 -23 -4 -23 -34z"/>
<path d="M1125 891 c-3 -5 -2 -12 3 -15 5 -3 9 1 9 9 0 17 -3 19 -12 6z"/>
<path d="M573 843 c-29 -83 -58 -142 -80 -165 l-27 -28 72 0 c40 0 72 4 72 9
0 5 -10 11 -21 13 -41 6 -46 31 -20 108 l24 70 91 -3 91 -2 27 -79 c29 -82 29
-96 -3 -96 -10 0 -19 -4 -19 -10 0 -6 35 -10 85 -10 47 0 85 3 85 6 0 3 -10
14 -21 23 -12 9 -36 53 -53 97 l-32 79 -132 3 c-119 2 -133 1 -139 -15z"/>
<path d="M1102 780 c0 -87 -10 -110 -48 -110 -13 0 -24 -4 -24 -10 0 -6 44
-10 111 -10 71 0 108 4 104 10 -3 6 -17 10 -30 10 -30 0 -39 24 -40 115 l0 70
-37 3 -36 3 0 -81z"/>
</g>
</svg>
